<?xml version="1.0" encoding="utf-8"?>
<!-- Generator: Adobe Illustrator 22.1.0, SVG Export Plug-In . SVG Version: 6.00 Build 0)  -->
<svg version="1.1" id="Слой_1" xmlns="http://www.w3.org/2000/svg" xmlns:xlink="http://www.w3.org/1999/xlink" x="0px" y="0px"
	 viewBox="0 0 1518.7 403" style="enable-background:new 0 0 1518.7 403;" xml:space="preserve">
<style type="text/css">
	.st0{fill:none;stroke:#000000;stroke-width:2;stroke-linejoin:round;stroke-miterlimit:10;}
	.st1{fill:none;stroke:#000000;stroke-width:2;stroke-miterlimit:10;}
	.st2{fill:#FFFFFF;stroke:#000000;stroke-width:2;stroke-miterlimit:10;}
	.st3{fill:none;stroke:#201600;stroke-width:2;stroke-miterlimit:10;}
	.st4{fill:#FFFFFF;stroke:#201600;stroke-width:2;stroke-miterlimit:10;}
	.st5{fill:none;stroke:#1E0E00;stroke-width:2;stroke-miterlimit:10;}
	.st6{fill:none;stroke:#1E0E00;stroke-width:2;stroke-linejoin:round;stroke-miterlimit:10;}
</style>
<g>
	<path class="st0" d="M1455.5,352.1c-4.1,0.9-8.3,1.3-8.3,1.3c-3.3,0.3-7.2,0.3-11.5-0.2c-730.2-3-1247.1-4.2-1281.4-1.1
		c-0.9,0.1-20.4,2-43.8-4.8c-17.4-5-35.3-14.4-34.2-21c1-6.3,17.8-4.9,21.7-15.3c2.7-7.3-2.9-15-3.6-16c-6.7-9.1-21.1-12.6-36.2-8.5
		c-3,20.9-6.1,41.9-9.1,62.8c-8.1,0.2-16.1,0.4-24.2,0.6c-0.9-22.8-1.8-45.5-2.6-68.3c-6.7,0.1-12.1,0.7-15.1-3.1
		c-2.1-2.7-2-5.9-1.9-7.2c479.7,0.1,959.4,0.2,1439,0.3c2.2,4.3,4.3,8.5,6.5,12.8c10.3-0.2,20.6-0.4,30.9-0.6c2.3,1,5.9,2.8,8.9,6.3
		c6.4,7.4,5.7,16.8,5.5,20.2C1494.2,335.2,1464.5,350,1455.5,352.1z"/>
	<rect x="56" y="91.2" class="st1" width="89" height="129.8"/>
	<rect x="6.7" y="210.6" class="st1" width="146.9" height="10.4"/>
	<rect x="165.8" y="202.2" class="st1" width="46" height="18.8"/>
	<rect x="165.8" y="183.5" class="st1" width="46" height="18.8"/>
	<rect x="165.8" y="164.8" class="st1" width="46" height="18.8"/>
	<rect x="165.8" y="146.1" class="st1" width="46" height="18.8"/>
	<rect x="165.8" y="127.3" class="st1" width="46" height="18.8"/>
	<rect x="165.8" y="108.6" class="st1" width="46" height="18.8"/>
	<rect x="211.8" y="202.2" class="st1" width="46" height="18.8"/>
	<rect x="211.8" y="183.5" class="st1" width="46" height="18.8"/>
	<rect x="211.8" y="164.8" class="st1" width="46" height="18.8"/>
	<rect x="211.8" y="146" class="st1" width="46" height="18.8"/>
	<rect x="211.8" y="127.3" class="st1" width="46" height="18.8"/>
	<rect x="211.8" y="108.6" class="st1" width="46" height="18.8"/>
	<rect x="257.8" y="202.2" class="st1" width="46" height="18.8"/>
	<rect x="257.8" y="183.5" class="st1" width="46" height="18.8"/>
	<rect x="257.8" y="164.7" class="st1" width="46" height="18.8"/>
	<rect x="257.8" y="146" class="st1" width="46" height="18.8"/>
	<rect x="257.8" y="127.3" class="st1" width="46" height="18.8"/>
	<rect x="257.8" y="108.6" class="st1" width="46" height="18.8"/>
	<rect x="333.1" y="202.3" class="st1" width="46" height="18.8"/>
	<rect x="333.1" y="183.5" class="st1" width="46" height="18.8"/>
	<rect x="333.1" y="164.8" class="st1" width="46" height="18.8"/>
	<rect x="333.1" y="146.1" class="st1" width="46" height="18.8"/>
	<rect x="333.1" y="127.4" class="st1" width="46" height="18.8"/>
	<rect x="333.1" y="108.7" class="st1" width="46" height="18.8"/>
	<rect x="379.1" y="202.2" class="st1" width="46" height="18.8"/>
	<rect x="379.1" y="183.5" class="st1" width="46" height="18.8"/>
	<rect x="379.1" y="164.8" class="st1" width="46" height="18.8"/>
	<rect x="379.1" y="146.1" class="st1" width="46" height="18.8"/>
	<rect x="379.1" y="127.3" class="st1" width="46" height="18.8"/>
	<rect x="379.1" y="108.6" class="st1" width="46" height="18.8"/>
	<rect x="434.7" y="202.2" class="st1" width="46" height="18.8"/>
	<rect x="434.7" y="183.4" class="st1" width="46" height="18.8"/>
	<rect x="434.7" y="164.7" class="st1" width="46" height="18.8"/>
	<rect x="434.7" y="146" class="st1" width="46" height="18.8"/>
	<rect x="434.7" y="127.3" class="st1" width="46" height="18.8"/>
	<rect x="434.7" y="108.5" class="st1" width="46" height="18.8"/>
	<rect x="480.7" y="202.1" class="st1" width="46" height="18.8"/>
	<rect x="480.7" y="183.4" class="st1" width="46" height="18.8"/>
	<rect x="480.7" y="164.7" class="st1" width="46" height="18.8"/>
	<rect x="480.7" y="146" class="st1" width="46" height="18.8"/>
	<rect x="480.7" y="127.2" class="st1" width="46" height="18.8"/>
	<rect x="480.7" y="108.5" class="st1" width="46" height="18.8"/>
	<rect x="536.3" y="202.1" class="st1" width="46" height="18.8"/>
	<rect x="536.3" y="183.3" class="st1" width="46" height="18.8"/>
	<rect x="536.3" y="164.6" class="st1" width="46" height="18.8"/>
	<rect x="536.3" y="145.9" class="st1" width="46" height="18.8"/>
	<rect x="536.3" y="127.2" class="st1" width="46" height="18.8"/>
	<rect x="536.3" y="108.4" class="st1" width="46" height="18.8"/>
	<rect x="582.4" y="202" class="st1" width="46" height="18.8"/>
	<rect x="582.4" y="183.3" class="st1" width="46" height="18.8"/>
	<rect x="582.4" y="164.6" class="st1" width="46" height="18.8"/>
	<rect x="582.4" y="145.9" class="st1" width="46" height="18.8"/>
	<rect x="582.4" y="127.1" class="st1" width="46" height="18.8"/>
	<rect x="582.4" y="108.4" class="st1" width="46" height="18.8"/>
	<rect x="638" y="202" class="st1" width="46" height="18.8"/>
	<rect x="638" y="183.2" class="st1" width="46" height="18.8"/>
	<rect x="638" y="164.5" class="st1" width="46" height="18.8"/>
	<rect x="638" y="145.8" class="st1" width="46" height="18.8"/>
	<rect x="638" y="127.1" class="st1" width="46" height="18.8"/>
	<rect x="638" y="108.3" class="st1" width="46" height="18.8"/>
	<rect x="684" y="201.9" class="st1" width="46" height="18.8"/>
	<rect x="684" y="183.2" class="st1" width="46" height="18.8"/>
	<rect x="684" y="164.5" class="st1" width="46" height="18.8"/>
	<rect x="684" y="145.8" class="st1" width="46" height="18.8"/>
	<rect x="684" y="127" class="st1" width="46" height="18.8"/>
	<rect x="684" y="108.3" class="st1" width="46" height="18.8"/>
	<rect x="758.1" y="202.5" class="st1" width="46" height="18.8"/>
	<rect x="758.1" y="183.7" class="st1" width="46" height="18.8"/>
	<rect x="758.1" y="165" class="st1" width="46" height="18.8"/>
	<rect x="758.1" y="146.3" class="st1" width="46" height="18.8"/>
	<rect x="758.1" y="127.6" class="st1" width="46" height="18.8"/>
	<rect x="758.1" y="108.8" class="st1" width="46" height="18.8"/>
	<rect x="804.2" y="202.4" class="st1" width="46" height="18.8"/>
	<rect x="804.2" y="183.7" class="st1" width="46" height="18.8"/>
	<rect x="804.2" y="165" class="st1" width="46" height="18.8"/>
	<rect x="804.2" y="146.3" class="st1" width="46" height="18.8"/>
	<rect x="804.2" y="127.5" class="st1" width="46" height="18.8"/>
	<rect x="804.2" y="108.8" class="st1" width="46" height="18.8"/>
	<rect x="859.8" y="202.4" class="st1" width="46" height="18.8"/>
	<rect x="859.8" y="183.6" class="st1" width="46" height="18.8"/>
	<rect x="859.8" y="164.9" class="st1" width="46" height="18.8"/>
	<rect x="859.8" y="146.2" class="st1" width="46" height="18.8"/>
	<rect x="859.8" y="127.5" class="st1" width="46" height="18.8"/>
	<rect x="859.8" y="108.7" class="st1" width="46" height="18.8"/>
	<rect x="905.8" y="202.3" class="st1" width="46" height="18.8"/>
	<rect x="905.8" y="183.6" class="st1" width="46" height="18.8"/>
	<rect x="905.8" y="164.9" class="st1" width="46" height="18.8"/>
	<rect x="905.8" y="146.2" class="st1" width="46" height="18.8"/>
	<rect x="905.8" y="127.4" class="st1" width="46" height="18.8"/>
	<rect x="905.8" y="108.7" class="st1" width="46" height="18.8"/>
	<rect x="961.4" y="202.3" class="st1" width="46" height="18.8"/>
	<rect x="961.4" y="183.5" class="st1" width="46" height="18.8"/>
	<rect x="961.4" y="164.8" class="st1" width="46" height="18.8"/>
	<rect x="961.4" y="146.1" class="st1" width="46" height="18.8"/>
	<rect x="961.4" y="127.4" class="st1" width="46" height="18.8"/>
	<rect x="961.4" y="108.6" class="st1" width="46" height="18.8"/>
	<rect x="1007.4" y="202.2" class="st1" width="46" height="18.8"/>
	<rect x="1007.4" y="183.5" class="st1" width="46" height="18.8"/>
	<rect x="1007.4" y="164.8" class="st1" width="46" height="18.8"/>
	<rect x="1007.4" y="146.1" class="st1" width="46" height="18.8"/>
	<rect x="1007.4" y="127.3" class="st1" width="46" height="18.8"/>
	<rect x="1007.4" y="108.6" class="st1" width="46" height="18.8"/>
	<rect x="1063" y="202.2" class="st1" width="46" height="18.8"/>
	<rect x="1063" y="183.4" class="st1" width="46" height="18.8"/>
	<rect x="1063" y="164.7" class="st1" width="46" height="18.8"/>
	<rect x="1063" y="146" class="st1" width="46" height="18.8"/>
	<rect x="1063" y="127.3" class="st1" width="46" height="18.8"/>
	<rect x="1063" y="108.5" class="st1" width="46" height="18.8"/>
	<rect x="1109.1" y="202.1" class="st1" width="46" height="18.8"/>
	<rect x="1109.1" y="183.4" class="st1" width="46" height="18.8"/>
	<rect x="1109.1" y="164.7" class="st1" width="46" height="18.8"/>
	<rect x="1109.1" y="146" class="st1" width="46" height="18.8"/>
	<rect x="1109.1" y="127.2" class="st1" width="46" height="18.8"/>
	<rect x="1109.1" y="108.5" class="st1" width="46" height="18.8"/>
	<rect x="1182" y="201.9" class="st1" width="46" height="18.8"/>
	<rect x="1182" y="183.2" class="st1" width="46" height="18.8"/>
	<rect x="1182" y="164.5" class="st1" width="46" height="18.8"/>
	<rect x="1182" y="145.7" class="st1" width="46" height="18.8"/>
	<rect x="1228.1" y="201.9" class="st1" width="46" height="18.8"/>
	<rect x="1228.1" y="183.2" class="st1" width="46" height="18.8"/>
	<rect x="1228.1" y="164.4" class="st1" width="46" height="18.8"/>
	<rect x="1228.1" y="145.7" class="st1" width="46" height="18.8"/>
	<rect x="1285.6" y="202.5" class="st1" width="46" height="18.8"/>
	<rect x="1285.6" y="183.8" class="st1" width="46" height="18.8"/>
	<rect x="1285.6" y="165" class="st1" width="46" height="18.8"/>
	<rect x="1331.6" y="202.5" class="st1" width="46" height="18.8"/>
	<rect x="1331.6" y="183.7" class="st1" width="46" height="18.8"/>
	<rect x="1331.6" y="165" class="st1" width="46" height="18.8"/>
	<line class="st0" x1="15.6" y1="210.6" x2="15.6" y2="220.8"/>
	<line class="st0" x1="23.7" y1="210.6" x2="23.7" y2="220.8"/>
	<line class="st0" x1="31.8" y1="210.6" x2="31.8" y2="220.8"/>
	<line class="st0" x1="39.8" y1="210.6" x2="39.8" y2="220.8"/>
	<line class="st0" x1="47.9" y1="210.6" x2="47.9" y2="220.8"/>
	<line class="st0" x1="64.1" y1="210.6" x2="64.1" y2="220.8"/>
	<line class="st0" x1="72.2" y1="210.6" x2="72.2" y2="220.8"/>
	<line class="st0" x1="80.3" y1="210.6" x2="80.3" y2="220.8"/>
	<line class="st0" x1="88.4" y1="210.6" x2="88.4" y2="220.8"/>
	<line class="st0" x1="96.5" y1="210.6" x2="96.5" y2="220.8"/>
	<line class="st0" x1="104.6" y1="210.6" x2="104.6" y2="220.8"/>
	<line class="st0" x1="112.7" y1="210.6" x2="112.7" y2="220.8"/>
	<line class="st0" x1="120.8" y1="210.6" x2="120.8" y2="220.8"/>
	<line class="st0" x1="128.8" y1="210.6" x2="128.8" y2="220.8"/>
	<line class="st0" x1="136.9" y1="210.6" x2="136.9" y2="220.8"/>
	<rect x="52.1" y="102.2" class="st0" width="62.2" height="9.2"/>
	<rect x="52.1" y="123.7" class="st0" width="62.2" height="9.2"/>
	<rect x="52.1" y="145.3" class="st0" width="62.2" height="9.2"/>
	<rect x="52.1" y="166.8" class="st0" width="62.2" height="9.2"/>
	<rect x="52.1" y="188.3" class="st0" width="62.2" height="9.2"/>
	<polygon class="st0" points="151.3,68.1 145,91.2 56,91.2 56,68.1 	"/>
	<rect x="119" y="98.7" class="st0" width="4.8" height="6.3"/>
	<rect x="135.4" y="98.7" class="st0" width="4.8" height="6.3"/>
	<rect x="119" y="120.1" class="st0" width="4.8" height="6.3"/>
	<rect x="135.4" y="120.1" class="st0" width="4.8" height="6.3"/>
	<rect x="119" y="141.5" class="st0" width="4.8" height="6.3"/>
	<rect x="135.4" y="141.5" class="st0" width="4.8" height="6.3"/>
	<rect x="119" y="162.9" class="st0" width="4.8" height="6.3"/>
	<rect x="135.4" y="162.9" class="st0" width="4.8" height="6.3"/>
	<rect x="119" y="184.3" class="st0" width="4.8" height="6.3"/>
	<rect x="135.4" y="184.3" class="st0" width="4.8" height="6.3"/>
	<rect x="165.8" y="221" class="st0" width="1108.3" height="21.5"/>
	<rect x="71" y="35.2" class="st0" width="19.5" height="32.9"/>
	<rect x="60.8" y="42.3" class="st0" width="5.8" height="25.7"/>
	<path class="st2" d="M1452.6,261.1c-482,0-963.9,0-1445.9,0V221c48.9,0,97.7,0,146.6,0c8.1,6.1,16.2,12.2,24.3,18.2
		c349.7,0.3,699.4,0.5,1049.1,0.8c17.5-11.2,35-22.4,52.5-33.6c70-0.6,140.1-1.1,210.1-1.7c2,1.8,4,3.7,6,5.5
		C1481.1,227.2,1466.9,244.1,1452.6,261.1z"/>
</g>
</svg>
