<?xml version="1.0" encoding="utf-8"?>
<!-- Generator: Adobe Illustrator 22.1.0, SVG Export Plug-In . SVG Version: 6.00 Build 0)  -->
<svg version="1.1" id="Layer_1" xmlns="http://www.w3.org/2000/svg" xmlns:xlink="http://www.w3.org/1999/xlink" x="0px" y="0px"
	 viewBox="0 0 512 512" style="enable-background:new 0 0 512 512;" xml:space="preserve">
<style type="text/css">
	.st0{fill:#FFFFFF;}
	.st1{fill:#D80027;}
	.st2{fill:#0052B4;}
</style>
<circle class="st0" cx="256" cy="256" r="256"/>
<path class="st1" d="M345,256c0,22.3-39.9,77.9-89,77.9s-89-55.7-89-77.9c0-49.2,39.9-89,89-89S345,206.8,345,256z"/>
<path class="st2" d="M345,256c0,49.2-39.9,89-89,89s-89-39.9-89-89"/>
<rect x="353.4" y="319.6" transform="matrix(0.7071 -0.7071 0.7071 0.7071 -125.4847 358.5929)" width="33.4" height="22.3"/>
<rect x="314.1" y="359" transform="matrix(0.7071 -0.7071 0.7071 0.7071 -164.8399 342.2899)" width="33.4" height="22.3"/>
<rect x="400.7" y="366.9" transform="matrix(0.7071 -0.7071 0.7071 0.7071 -145.036 405.8166)" width="33.4" height="22.3"/>
<rect x="361.3" y="406.2" transform="matrix(0.7071 -0.7071 0.7071 0.7071 -184.3959 389.5158)" width="33.4" height="22.3"/>
<rect x="377" y="343.2" transform="matrix(0.7071 -0.7071 0.7071 0.7071 -135.262 382.2044)" width="33.4" height="22.3"/>
<rect x="337.7" y="382.6" transform="matrix(0.7071 -0.7071 0.7071 0.7071 -174.614 365.9091)" width="33.4" height="22.3"/>
<rect x="362.9" y="93.4" transform="matrix(0.7071 -0.7071 0.7071 0.7071 12.0248 304.9063)" width="22.3" height="89"/>
<rect x="319.6" y="125.2" transform="matrix(0.7071 -0.7071 0.7071 0.7071 -3.4437 275.452)" width="22.3" height="33.4"/>
<rect x="359" y="164.5" transform="matrix(0.7071 -0.7071 0.7071 0.7071 -19.7428 314.7991)" width="22.3" height="33.4"/>
<rect x="366.8" y="78" transform="matrix(0.7071 -0.7071 0.7071 0.7071 43.7731 294.9973)" width="22.3" height="33.4"/>
<rect x="406.2" y="117.3" transform="matrix(0.7071 -0.7071 0.7071 0.7071 27.477 334.3609)" width="22.3" height="33.4"/>
<rect x="103.2" y="353.1" transform="matrix(0.7071 -0.7071 0.7071 0.7071 -247.7072 197.3206)" width="22.3" height="89"/>
<rect x="146.5" y="377" transform="matrix(0.7071 -0.7071 0.7071 0.7071 -232.2418 226.7709)" width="22.3" height="33.4"/>
<rect x="107.1" y="337.7" transform="matrix(0.7071 -0.7071 0.7071 0.7071 -215.9447 187.4216)" width="22.3" height="33.4"/>
<rect x="150.4" y="305.9" transform="matrix(0.7071 -0.7071 0.7071 0.7071 -200.4826 216.878)" width="22.3" height="89"/>
<rect x="69.8" y="103.2" transform="matrix(0.7071 -0.7071 0.7071 0.7071 -47.3572 114.3317)" width="89" height="22.3"/>
<rect x="93.4" y="126.8" transform="matrix(0.7071 -0.7071 0.7071 0.7071 -57.1353 137.9355)" width="89" height="22.3"/>
<rect x="117" y="150.4" transform="matrix(0.7071 -0.7071 0.7071 0.7071 -66.9187 161.5601)" width="89" height="22.3"/>
</svg>
