<?xml version="1.0" encoding="utf-8"?>
<!-- Generator: Adobe Illustrator 22.1.0, SVG Export Plug-In . SVG Version: 6.00 Build 0)  -->
<svg version="1.1" id="Layer_1" xmlns="http://www.w3.org/2000/svg" xmlns:xlink="http://www.w3.org/1999/xlink" x="0px" y="0px"
	 viewBox="0 0 512 512" style="enable-background:new 0 0 512 512;" xml:space="preserve">
<style type="text/css">
	.st0{fill:#FFFFFF;}
	.st1{fill:#D80027;}
	.st2{fill:#0052B4;}
</style>
<circle class="st0" cx="256" cy="256" r="256"/>
<g>
	<path class="st1" d="M244.9,256H512c0-23.1-3.1-45.5-8.8-66.8H244.9V256z"/>
	<path class="st1" d="M244.9,122.4h229.6c-15.7-25.6-35.7-48.2-59.1-66.8H244.9V122.4z"/>
	<path class="st1" d="M256,512c60.2,0,115.6-20.8,159.4-55.7H96.6C140.4,491.2,195.8,512,256,512z"/>
	<path class="st1" d="M37.6,389.6h436.9c12.6-20.5,22.3-43,28.8-66.8H8.8C15.2,346.6,25,369,37.6,389.6z"/>
</g>
<path class="st2" d="M118.6,40h23.3l-21.7,15.8l8.3,25.5l-21.7-15.8L85.1,81.3l7.2-22c-19.1,15.9-35.9,34.6-49.7,55.3h7.5l-13.8,10
	c-2.2,3.6-4.2,7.2-6.2,10.9l6.6,20.3l-12.3-8.9c-3.1,6.5-5.9,13.1-8.4,19.9l7.3,22.4h26.8l-21.7,15.8l8.3,25.5L15,214.6l-13,9.4
	c-1.3,10.5-2,21.1-2,31.9h256c0-141.4,0-158.1,0-256C205.4,0,158.3,14.7,118.6,40z M128.5,230.4l-21.7-15.8l-21.7,15.8l8.3-25.5
	l-21.7-15.8h26.8l8.3-25.5l8.3,25.5h26.8l-21.7,15.8L128.5,230.4z M120.2,130.3l8.3,25.5l-21.7-15.8l-21.7,15.8l8.3-25.5l-21.7-15.8
	h26.8l8.3-25.5l8.3,25.5h26.8L120.2,130.3z M220.3,230.4l-21.7-15.8l-21.7,15.8l8.3-25.5l-21.7-15.8h26.8l8.3-25.5l8.3,25.5h26.8
	L212,204.9L220.3,230.4z M212,130.3l8.3,25.5l-21.7-15.8l-21.7,15.8l8.3-25.5l-21.7-15.8h26.8l8.3-25.5l8.3,25.5h26.8L212,130.3z
	 M212,55.7l8.3,25.5l-21.7-15.8l-21.7,15.8l8.3-25.5L163.5,40h26.8l8.3-25.5l8.3,25.5h26.8L212,55.7z"/>
</svg>
